{
    "asset" : {
        "generator" : "Khronos glTF Blender I/O v3.2.43",
        "version" : "2.0"
    },
    "scene" : 0,
    "scenes" : [
        {
            "name" : "Scene",
            "nodes" : [
                0,
                1,
                2,
                3,
                4,
                5,
                6,
                7
            ]
        }
    ],
    "nodes" : [
        {
            "mesh" : 0,
            "name" : "Mesh",
            "scale" : [
                99.99999237060547,
                100,
                100
            ]
        },
        {
            "mesh" : 1,
            "name" : "Mesh_001",
            "scale" : [
                99.99999237060547,
                100,
                100
            ]
        },
        {
            "mesh" : 2,
            "name" : "Mesh_002",
            "scale" : [
                99.99999237060547,
                100,
                100
            ]
        },
        {
            "mesh" : 3,
            "name" : "Mesh_003",
            "scale" : [
                99.99999237060547,
                100,
                100
            ]
        },
        {
            "mesh" : 4,
            "name" : "Mesh_004",
            "scale" : [
                99.99999237060547,
                100,
                100
            ]
        },
        {
            "mesh" : 5,
            "name" : "Mesh_005",
            "scale" : [
                99.99999237060547,
                100,
                100
            ]
        },
        {
            "mesh" : 6,
            "name" : "Mesh_006",
            "scale" : [
                99.99999237060547,
                100,
                100
            ]
        },
        {
            "mesh" : 7,
            "name" : "Mesh_007",
            "scale" : [
                99.99999237060547,
                100,
                100
            ]
        }
    ],
    "materials" : [
        {
            "name" : "base",
            "pbrMetallicRoughness" : {
                "baseColorFactor" : [
                    0.800000011920929,
                    0.800000011920929,
                    0.800000011920929,
                    1
                ],
                "metallicFactor" : 0,
                "roughnessFactor" : 0.5
            }
        },
        {
            "name" : "light",
            "pbrMetallicRoughness" : {
                "baseColorFactor" : [
                    0.800000011920929,
                    0.800000011920929,
                    0.800000011920929,
                    1
                ],
                "metallicFactor" : 0,
                "roughnessFactor" : 0.5
            }
        },
        {
            "name" : "logo",
            "pbrMetallicRoughness" : {
                "baseColorFactor" : [
                    0.44115787744522095,
                    0.44115787744522095,
                    0.44115787744522095,
                    1
                ],
                "metallicFactor" : 0,
                "roughnessFactor" : 0.5
            }
        }
    ],
    "meshes" : [
        {
            "name" : "Mesh.002",
            "primitives" : [
                {
                    "attributes" : {
                        "POSITION" : 0,
                        "NORMAL" : 1
                    },
                    "indices" : 2,
                    "material" : 0
                }
            ]
        },
        {
            "name" : "Mesh_001.002",
            "primitives" : [
                {
                    "attributes" : {
                        "POSITION" : 3,
                        "NORMAL" : 4
                    },
                    "indices" : 5,
                    "material" : 0
                }
            ]
        },
        {
            "name" : "Mesh_002.002",
            "primitives" : [
                {
                    "attributes" : {
                        "POSITION" : 6,
                        "NORMAL" : 7
                    },
                    "indices" : 8,
                    "material" : 0
                }
            ]
        },
        {
            "name" : "Mesh_003.002",
            "primitives" : [
                {
                    "attributes" : {
                        "POSITION" : 9,
                        "NORMAL" : 10
                    },
                    "indices" : 11,
                    "material" : 1
                }
            ]
        },
        {
            "name" : "Mesh_004.002",
            "primitives" : [
                {
                    "attributes" : {
                        "POSITION" : 12,
                        "NORMAL" : 13,
                        "TEXCOORD_0" : 14
                    },
                    "indices" : 15,
                    "material" : 0
                }
            ]
        },
        {
            "name" : "Mesh_005.002",
            "primitives" : [
                {
                    "attributes" : {
                        "POSITION" : 16,
                        "NORMAL" : 17
                    },
                    "indices" : 18,
                    "material" : 2
                }
            ]
        },
        {
            "name" : "Mesh_006.002",
            "primitives" : [
                {
                    "attributes" : {
                        "POSITION" : 19,
                        "NORMAL" : 20,
                        "TEXCOORD_0" : 21
                    },
                    "indices" : 22,
                    "material" : 0
                }
            ]
        },
        {
            "name" : "Mesh_007.002",
            "primitives" : [
                {
                    "attributes" : {
                        "POSITION" : 23,
                        "NORMAL" : 24
                    },
                    "indices" : 25,
                    "material" : 0
                }
            ]
        }
    ],
    "accessors" : [
        {
            "bufferView" : 0,
            "componentType" : 5126,
            "count" : 1458,
            "max" : [
                0.09330854564905167,
                0.09330850839614868,
                -0.014049440622329712
            ],
            "min" : [
                -0.09330853819847107,
                -0.09330854564905167,
                -0.016049472615122795
            ],
            "type" : "VEC3"
        },
        {
            "bufferView" : 1,
            "componentType" : 5126,
            "count" : 1458,
            "type" : "VEC3"
        },
        {
            "bufferView" : 2,
            "componentType" : 5123,
            "count" : 4164,
            "type" : "SCALAR"
        },
        {
            "bufferView" : 3,
            "componentType" : 5126,
            "count" : 1528,
            "max" : [
                0.09330854564905167,
                0.09330850839614868,
                -0.016049444675445557
            ],
            "min" : [
                -0.09330853819847107,
                -0.09330854564905167,
                -0.01804947666823864
            ],
            "type" : "VEC3"
        },
        {
            "bufferView" : 4,
            "componentType" : 5126,
            "count" : 1528,
            "type" : "VEC3"
        },
        {
            "bufferView" : 5,
            "componentType" : 5123,
            "count" : 3948,
            "type" : "SCALAR"
        },
        {
            "bufferView" : 6,
            "componentType" : 5126,
            "count" : 1296,
            "max" : [
                0.04402511566877365,
                0.044025130569934845,
                -0.014049449004232883
            ],
            "min" : [
                -0.044025108218193054,
                -0.0385158471763134,
                -0.01604946330189705
            ],
            "type" : "VEC3"
        },
        {
            "bufferView" : 7,
            "componentType" : 5126,
            "count" : 1296,
            "type" : "VEC3"
        },
        {
            "bufferView" : 8,
            "componentType" : 5123,
            "count" : 3852,
            "type" : "SCALAR"
        },
        {
            "bufferView" : 9,
            "componentType" : 5126,
            "count" : 2560,
            "max" : [
                0.03425191342830658,
                0.034251924604177475,
                0.015259454026818275
            ],
            "min" : [
                -0.03425191342830658,
                -0.03425190597772598,
                0.011816039681434631
            ],
            "type" : "VEC3"
        },
        {
            "bufferView" : 10,
            "componentType" : 5126,
            "count" : 2560,
            "type" : "VEC3"
        },
        {
            "bufferView" : 11,
            "componentType" : 5123,
            "count" : 12288,
            "type" : "SCALAR"
        },
        {
            "bufferView" : 12,
            "componentType" : 5126,
            "count" : 12084,
            "max" : [
                0.09992635995149612,
                0.09992635995149612,
                0.017950542271137238
            ],
            "min" : [
                -0.09992635995149612,
                -0.09992635250091553,
                -0.018049485981464386
            ],
            "type" : "VEC3"
        },
        {
            "bufferView" : 13,
            "componentType" : 5126,
            "count" : 12084,
            "type" : "VEC3"
        },
        {
            "bufferView" : 14,
            "componentType" : 5126,
            "count" : 12084,
            "type" : "VEC2"
        },
        {
            "bufferView" : 15,
            "componentType" : 5123,
            "count" : 64518,
            "type" : "SCALAR"
        },
        {
            "bufferView" : 16,
            "componentType" : 5126,
            "count" : 1024,
            "max" : [
                0.008186611346900463,
                0.009231718257069588,
                0.018049482256174088
            ],
            "min" : [
                -0.008186588063836098,
                -0.009231705218553543,
                0.016049480065703392
            ],
            "type" : "VEC3"
        },
        {
            "bufferView" : 17,
            "componentType" : 5126,
            "count" : 1024,
            "type" : "VEC3"
        },
        {
            "bufferView" : 18,
            "componentType" : 5123,
            "count" : 2712,
            "type" : "SCALAR"
        },
        {
            "bufferView" : 19,
            "componentType" : 5126,
            "count" : 262,
            "max" : [
                0.042680781334638596,
                0.04320657253265381,
                -0.01314620953053236
            ],
            "min" : [
                -0.04373236373066902,
                -0.04320657253265381,
                -0.014146224595606327
            ],
            "type" : "VEC3"
        },
        {
            "bufferView" : 20,
            "componentType" : 5126,
            "count" : 262,
            "type" : "VEC3"
        },
        {
            "bufferView" : 21,
            "componentType" : 5126,
            "count" : 262,
            "type" : "VEC2"
        },
        {
            "bufferView" : 22,
            "componentType" : 5123,
            "count" : 768,
            "type" : "SCALAR"
        },
        {
            "bufferView" : 23,
            "componentType" : 5126,
            "count" : 2428,
            "max" : [
                0.04402511566877365,
                0.044025130569934845,
                -0.016049452126026154
            ],
            "min" : [
                -0.044025108218193054,
                -0.0385158471763134,
                -0.018049467355012894
            ],
            "type" : "VEC3"
        },
        {
            "bufferView" : 24,
            "componentType" : 5126,
            "count" : 2428,
            "type" : "VEC3"
        },
        {
            "bufferView" : 25,
            "componentType" : 5123,
            "count" : 7152,
            "type" : "SCALAR"
        }
    ],
    "bufferViews" : [
        {
            "buffer" : 0,
            "byteLength" : 17496,
            "byteOffset" : 0
        },
        {
            "buffer" : 0,
            "byteLength" : 17496,
            "byteOffset" : 17496
        },
        {
            "buffer" : 0,
            "byteLength" : 8328,
            "byteOffset" : 34992
        },
        {
            "buffer" : 0,
            "byteLength" : 18336,
            "byteOffset" : 43320
        },
        {
            "buffer" : 0,
            "byteLength" : 18336,
            "byteOffset" : 61656
        },
        {
            "buffer" : 0,
            "byteLength" : 7896,
            "byteOffset" : 79992
        },
        {
            "buffer" : 0,
            "byteLength" : 15552,
            "byteOffset" : 87888
        },
        {
            "buffer" : 0,
            "byteLength" : 15552,
            "byteOffset" : 103440
        },
        {
            "buffer" : 0,
            "byteLength" : 7704,
            "byteOffset" : 118992
        },
        {
            "buffer" : 0,
            "byteLength" : 30720,
            "byteOffset" : 126696
        },
        {
            "buffer" : 0,
            "byteLength" : 30720,
            "byteOffset" : 157416
        },
        {
            "buffer" : 0,
            "byteLength" : 24576,
            "byteOffset" : 188136
        },
        {
            "buffer" : 0,
            "byteLength" : 145008,
            "byteOffset" : 212712
        },
        {
            "buffer" : 0,
            "byteLength" : 145008,
            "byteOffset" : 357720
        },
        {
            "buffer" : 0,
            "byteLength" : 96672,
            "byteOffset" : 502728
        },
        {
            "buffer" : 0,
            "byteLength" : 129036,
            "byteOffset" : 599400
        },
        {
            "buffer" : 0,
            "byteLength" : 12288,
            "byteOffset" : 728436
        },
        {
            "buffer" : 0,
            "byteLength" : 12288,
            "byteOffset" : 740724
        },
        {
            "buffer" : 0,
            "byteLength" : 5424,
            "byteOffset" : 753012
        },
        {
            "buffer" : 0,
            "byteLength" : 3144,
            "byteOffset" : 758436
        },
        {
            "buffer" : 0,
            "byteLength" : 3144,
            "byteOffset" : 761580
        },
        {
            "buffer" : 0,
            "byteLength" : 2096,
            "byteOffset" : 764724
        },
        {
            "buffer" : 0,
            "byteLength" : 1536,
            "byteOffset" : 766820
        },
        {
            "buffer" : 0,
            "byteLength" : 29136,
            "byteOffset" : 768356
        },
        {
            "buffer" : 0,
            "byteLength" : 29136,
            "byteOffset" : 797492
        },
        {
            "buffer" : 0,
            "byteLength" : 14304,
            "byteOffset" : 826628
        }
    ],
    "buffers" : [
        {
            "byteLength" : 840932,
            "uri" : "data:application/octet-stream;base64,"
        }
    ]
}
